<?xml version="1.0" encoding="UTF-8" standalone="no"?>
<!-- Created with Inkscape (http://www.inkscape.org/) -->

<svg
   width="64"
   height="64"
   viewBox="0 0 16.933333 16.933333"
   version="1.1"
   id="svg5"
   xml:space="preserve"
   sodipodi:docname="icon.svg"
   inkscape:export-filename="icon.png"
   inkscape:export-xdpi="768"
   inkscape:export-ydpi="768"
   inkscape:version="1.2.2 (b0a8486541, 2022-12-01)"
   xmlns:inkscape="http://www.inkscape.org/namespaces/inkscape"
   xmlns:sodipodi="http://sodipodi.sourceforge.net/DTD/sodipodi-0.dtd"
   xmlns="http://www.w3.org/2000/svg"
   xmlns:svg="http://www.w3.org/2000/svg"><sodipodi:namedview
     id="namedview212"
     pagecolor="#ffffff"
     bordercolor="#999999"
     borderopacity="1"
     inkscape:showpageshadow="0"
     inkscape:pageopacity="0"
     inkscape:pagecheckerboard="0"
     inkscape:deskcolor="#d1d1d1"
     showgrid="false"
     inkscape:zoom="5.84375"
     inkscape:cx="30.802139"
     inkscape:cy="32.085561"
     inkscape:window-width="1920"
     inkscape:window-height="1080"
     inkscape:window-x="0"
     inkscape:window-y="0"
     inkscape:window-maximized="1"
     inkscape:current-layer="layer1" /><defs
     id="defs2" /><g
     id="layer1"><rect
       style="fill:#030b1f;fill-opacity:1;stroke-width:0.819666;stroke-linecap:round;stroke-linejoin:round;paint-order:markers stroke fill;stop-color:#000000"
       id="rect234"
       width="16.933332"
       height="16.933332"
       x="0"
       y="0" /><rect
       style="fill:#ffffff;fill-opacity:1;stroke-width:0.730758;stroke-linecap:round;stroke-linejoin:round;paint-order:markers stroke fill;stop-color:#000000"
       id="rect1706"
       width="4.2333331"
       height="2.1166666"
       x="2.5952761"
       y="14.816667" /><path
       style="fill:#ffffff;fill-opacity:1;stroke-width:0.840585;stroke-linecap:round;stroke-linejoin:round;paint-order:markers stroke fill;stop-color:#000000"
       id="path1760"
       d="M 8.6672224,9.1329346 A 1.0583333,1.0583333 0 0 1 7.6113975,10.191265 1.0583333,1.0583333 0 0 1 6.5505677,9.1379514 1.0583333,1.0583333 0 0 1 7.6013639,8.074628 1.0583333,1.0583333 0 0 1 8.6671748,9.122901" /><path
       style="fill:#8953e5;fill-opacity:1;stroke-width:0.271844;stroke-linecap:round;stroke-linejoin:round;paint-order:markers stroke fill;stop-color:#000000"
       id="path1760-2"
       d="M 7.0868055,6.1665268 A 0.34226292,0.34226292 0 0 1 6.7453538,6.5087888 0.34226292,0.34226292 0 0 1 6.4022835,6.1681492 0.34226292,0.34226292 0 0 1 6.7421089,5.8242725 0.34226292,0.34226292 0 0 1 7.0867901,6.1632819" /><path
       style="fill:#8953e5;fill-opacity:1;stroke-width:0.271844;stroke-linecap:round;stroke-linejoin:round;paint-order:markers stroke fill;stop-color:#000000"
       id="path1760-2-7"
       d="M 9.9609095,4.6433425 A 0.34226292,0.34226292 0 0 1 9.6194578,4.9856045 0.34226292,0.34226292 0 0 1 9.2763875,4.6449649 0.34226292,0.34226292 0 0 1 9.616213,4.3010882 0.34226292,0.34226292 0 0 1 9.9608942,4.6400976" /><path
       style="fill:#8953e5;fill-opacity:1;stroke-width:0.271844;stroke-linecap:round;stroke-linejoin:round;paint-order:markers stroke fill;stop-color:#000000"
       id="path1760-2-0"
       d="M 9.4754292,6.0612068 A 0.34226292,0.34226292 0 0 1 9.1339775,6.4034688 0.34226292,0.34226292 0 0 1 8.7909072,6.0628293 0.34226292,0.34226292 0 0 1 9.1307327,5.7189525 0.34226292,0.34226292 0 0 1 9.4754139,6.057962" /><path
       style="fill:#8953e5;fill-opacity:1;stroke-width:0.271844;stroke-linecap:round;stroke-linejoin:round;paint-order:markers stroke fill;stop-color:#000000"
       id="path1760-2-9"
       d="M 8.7935426,7.682621 A 0.34226292,0.34226292 0 0 1 8.4520909,8.024883 0.34226292,0.34226292 0 0 1 8.1090206,7.6842434 0.34226292,0.34226292 0 0 1 8.448846,7.3403667 0.34226292,0.34226292 0 0 1 8.7935272,7.6793762" /><path
       style="fill:#8953e5;fill-opacity:1;stroke-width:0.271844;stroke-linecap:round;stroke-linejoin:round;paint-order:markers stroke fill;stop-color:#000000"
       id="path1760-2-3"
       d="M 10.550572,7.5443454 A 0.34226292,0.34226292 0 0 1 10.20912,7.8866073 0.34226292,0.34226292 0 0 1 9.8660501,7.5459678 0.34226292,0.34226292 0 0 1 10.205876,7.2020911 0.34226292,0.34226292 0 0 1 10.550557,7.5411005" /><path
       style="fill:#8953e5;fill-opacity:1;stroke-width:0.271844;stroke-linecap:round;stroke-linejoin:round;paint-order:markers stroke fill;stop-color:#000000"
       id="path1760-2-6"
       d="m 11.171486,10.027683 a 0.34226292,0.34226292 0 0 1 -0.341452,0.342262 0.34226292,0.34226292 0 0 1 -0.34307,-0.340639 0.34226292,0.34226292 0 0 1 0.339825,-0.343877 0.34226292,0.34226292 0 0 1 0.344681,0.339009" /><path
       style="fill:#8953e5;fill-opacity:1;stroke-width:0.271844;stroke-linecap:round;stroke-linejoin:round;paint-order:markers stroke fill;stop-color:#000000"
       id="path1760-2-06"
       d="M 9.6700341,9.248889 A 0.34226292,0.34226292 0 0 1 9.3285824,9.5911509 0.34226292,0.34226292 0 0 1 8.9855121,9.2505114 0.34226292,0.34226292 0 0 1 9.3253375,8.9066347 0.34226292,0.34226292 0 0 1 9.6700187,9.2456441" /><path
       style="fill:#8953e5;fill-opacity:1;stroke-width:0.271844;stroke-linecap:round;stroke-linejoin:round;paint-order:markers stroke fill;stop-color:#000000"
       id="path1760-2-2"
       d="m 9.8461224,10.381763 a 0.34226292,0.34226292 0 0 1 -0.3414517,0.342262 0.34226292,0.34226292 0 0 1 -0.3430703,-0.340639 0.34226292,0.34226292 0 0 1 0.3398255,-0.343877 0.34226292,0.34226292 0 0 1 0.3446812,0.33901" /><path
       style="fill:#8953e5;fill-opacity:1;stroke-width:0.271844;stroke-linecap:round;stroke-linejoin:round;paint-order:markers stroke fill;stop-color:#000000"
       id="path1760-2-61"
       d="m 10.677446,12.346528 a 0.34226292,0.34226292 0 0 1 -0.341452,0.342262 0.34226292,0.34226292 0 0 1 -0.3430699,-0.34064 0.34226292,0.34226292 0 0 1 0.3398249,-0.343876 0.34226292,0.34226292 0 0 1 0.344682,0.339009" /><path
       style="fill:#8953e5;fill-opacity:1;stroke-width:0.271844;stroke-linecap:round;stroke-linejoin:round;paint-order:markers stroke fill;stop-color:#000000"
       id="path1760-2-8"
       d="m 12.174136,14.576557 a 0.34226292,0.34226292 0 0 1 -0.341452,0.342262 0.34226292,0.34226292 0 0 1 -0.34307,-0.340639 0.34226292,0.34226292 0 0 1 0.339825,-0.343877 0.34226292,0.34226292 0 0 1 0.344681,0.339009" /><path
       style="fill:#4aaae5;fill-opacity:1;stroke-width:0.271844;stroke-linecap:round;stroke-linejoin:round;paint-order:markers stroke fill;stop-color:#000000"
       id="path1760-2-8-7"
       d="m 12.155115,8.4203005 a 0.34226292,0.34226292 0 0 1 -0.341452,0.3422619 0.34226292,0.34226292 0 0 1 -0.34307,-0.3406395 0.34226292,0.34226292 0 0 1 0.339825,-0.3438767 0.34226292,0.34226292 0 0 1 0.344681,0.3390094" /><path
       style="fill:#4aaae5;fill-opacity:1;stroke-width:0.271844;stroke-linecap:round;stroke-linejoin:round;paint-order:markers stroke fill;stop-color:#000000"
       id="path1760-2-8-7-9"
       d="M 13.807412,9.5352793 A 0.34226292,0.34226292 0 0 1 13.46596,9.8775412 0.34226292,0.34226292 0 0 1 13.12289,9.5369017 0.34226292,0.34226292 0 0 1 13.462715,9.193025 0.34226292,0.34226292 0 0 1 13.807396,9.5320344" /><path
       style="fill:#4aaae5;fill-opacity:1;stroke-width:0.271844;stroke-linecap:round;stroke-linejoin:round;paint-order:markers stroke fill;stop-color:#000000"
       id="path1760-2-8-7-2"
       d="M 10.550572,8.4820604 A 0.34226292,0.34226292 0 0 1 10.20912,8.8243224 0.34226292,0.34226292 0 0 1 9.8660501,8.4836829 0.34226292,0.34226292 0 0 1 10.205876,8.1398062 0.34226292,0.34226292 0 0 1 10.550557,8.4788156" /><path
       style="fill:#4aaae5;fill-opacity:1;stroke-width:0.271844;stroke-linecap:round;stroke-linejoin:round;paint-order:markers stroke fill;stop-color:#000000"
       id="path1760-2-8-7-0"
       d="m 11.829275,6.7558122 a 0.34226292,0.34226292 0 0 1 -0.341452,0.3422619 0.34226292,0.34226292 0 0 1 -0.34307,-0.3406395 0.34226292,0.34226292 0 0 1 0.339825,-0.3438767 0.34226292,0.34226292 0 0 1 0.344681,0.3390094" /><path
       style="fill:#4aaae5;fill-opacity:1;stroke-width:0.271844;stroke-linecap:round;stroke-linejoin:round;paint-order:markers stroke fill;stop-color:#000000"
       id="path1760-2-8-7-23"
       d="m 10.76369,5.8607206 a 0.34226292,0.34226292 0 0 1 -0.341452,0.342262 0.34226292,0.34226292 0 0 1 -0.34307,-0.3406395 0.34226292,0.34226292 0 0 1 0.339825,-0.3438767 0.34226292,0.34226292 0 0 1 0.344681,0.3390094" /><path
       style="fill:#4aaae5;fill-opacity:1;stroke-width:0.271844;stroke-linecap:round;stroke-linejoin:round;paint-order:markers stroke fill;stop-color:#000000"
       id="path1760-2-8-7-7"
       d="M 8.3128425,4.9443169 A 0.34226292,0.34226292 0 0 1 7.9713908,5.2865788 0.34226292,0.34226292 0 0 1 7.6283205,4.9459393 0.34226292,0.34226292 0 0 1 7.968146,4.6020626 0.34226292,0.34226292 0 0 1 8.3128272,4.941072" /><path
       style="fill:#4aaae5;fill-opacity:1;stroke-width:0.271844;stroke-linecap:round;stroke-linejoin:round;paint-order:markers stroke fill;stop-color:#000000"
       id="path1760-2-8-7-5"
       d="M 8.5685832,6.3082666 A 0.34226292,0.34226292 0 0 1 8.2271315,6.6505286 0.34226292,0.34226292 0 0 1 7.8840612,6.3098891 0.34226292,0.34226292 0 0 1 8.2238866,5.9660124 0.34226292,0.34226292 0 0 1 8.5685678,6.3050218" /><path
       style="fill:#4aaae5;fill-opacity:1;stroke-width:0.271844;stroke-linecap:round;stroke-linejoin:round;paint-order:markers stroke fill;stop-color:#000000"
       id="path1760-2-8-7-92"
       d="M 9.7620389,7.0115528 A 0.34226292,0.34226292 0 0 1 9.4205872,7.3538148 0.34226292,0.34226292 0 0 1 9.0775169,7.0131753 0.34226292,0.34226292 0 0 1 9.4173423,6.6692985 0.34226292,0.34226292 0 0 1 9.7620235,7.008308" /><rect
       style="fill:#4aaae5;fill-opacity:1;stroke-width:1.46181;stroke-linecap:round;stroke-linejoin:round;paint-order:markers stroke fill;stop-color:#000000"
       id="rect1762"
       width="4.2333331"
       height="4.2333331"
       x="0"
       y="-6.9388939e-18" /><rect
       style="fill:#8953e5;fill-opacity:1;stroke-width:1.46181;stroke-linecap:round;stroke-linejoin:round;paint-order:markers stroke fill;stop-color:#000000"
       id="rect1762-3"
       width="4.2333331"
       height="4.2333331"
       x="4.2333331"
       y="0" /><rect
       style="fill:#4aaae5;fill-opacity:1;stroke-width:1.46181;stroke-linecap:round;stroke-linejoin:round;paint-order:markers stroke fill;stop-color:#000000"
       id="rect1762-5"
       width="4.2333331"
       height="4.2333331"
       x="8.4666662"
       y="3.469447e-18" /><rect
       style="fill:#8953e5;fill-opacity:1;stroke-width:1.46181;stroke-linecap:round;stroke-linejoin:round;paint-order:markers stroke fill;stop-color:#000000"
       id="rect1762-3-3"
       width="4.2333331"
       height="4.2333331"
       x="12.699999"
       y="3.469447e-18" /><rect
       style="fill:#4aaae5;fill-opacity:1;stroke-width:1.46181;stroke-linecap:round;stroke-linejoin:round;paint-order:markers stroke fill;stop-color:#000000"
       id="rect1762-56"
       width="4.2333331"
       height="4.2333331"
       x="-16.933332"
       y="4.2333331"
       transform="scale(-1,1)" /><rect
       style="fill:#8953e5;fill-opacity:1;stroke-width:1.46181;stroke-linecap:round;stroke-linejoin:round;paint-order:markers stroke fill;stop-color:#000000"
       id="rect1762-3-3-1"
       width="4.2333331"
       height="4.2333331"
       x="-4.2333331"
       y="4.2333331"
       transform="scale(-1,1)" /></g></svg>
